<?xml version="1.0" encoding="UTF-8" standalone="no"?>
<!-- Generator: Adobe Illustrator 12.0.0, SVG Export Plug-In . SVG Version: 6.00 Build 51448)  -->
<svg
   xmlns:dc="http://purl.org/dc/elements/1.1/"
   xmlns:cc="http://web.resource.org/cc/"
   xmlns:rdf="http://www.w3.org/1999/02/22-rdf-syntax-ns#"
   xmlns:svg="http://www.w3.org/2000/svg"
   xmlns="http://www.w3.org/2000/svg"
   xmlns:xlink="http://www.w3.org/1999/xlink"
   xmlns:sodipodi="http://sodipodi.sourceforge.net/DTD/sodipodi-0.dtd"
   xmlns:inkscape="http://www.inkscape.org/namespaces/inkscape"
   version="1.1"
   width="772.461"
   height="467.976"
   viewBox="0 0 772.461 467.976"
   overflow="visible"
   enable-background="new 0 0 772.461 467.976"
   xml:space="preserve"
   id="svg1992"
   sodipodi:version="0.32"
   inkscape:version="0.44.1"
   sodipodi:docname="blug-tux.svg"
   sodipodi:docbase="/Users/jeremy/Projects/blug-website/content"><metadata
   id="metadata2074"><rdf:RDF><cc:Work
       rdf:about=""><dc:format>image/svg+xml</dc:format><dc:type
         rdf:resource="http://purl.org/dc/dcmitype/StillImage" /></cc:Work></rdf:RDF></metadata><defs
   id="defs2072">
	
	
	
	

	
	
	
	
	
	
	
	
	
	
	
	
	

	
	

	
</defs><sodipodi:namedview
   inkscape:window-height="1010"
   inkscape:window-width="1433"
   inkscape:pageshadow="2"
   inkscape:pageopacity="0.0"
   guidetolerance="10.0"
   gridtolerance="10.0"
   objecttolerance="10.0"
   borderopacity="1.0"
   bordercolor="#666666"
   pagecolor="#ffffff"
   id="base"
   inkscape:zoom="1"
   inkscape:cx="491.81123"
   inkscape:cy="143.26642"
   inkscape:window-x="1605"
   inkscape:window-y="9"
   inkscape:current-layer="svg1992" />

<polyline
   style="fill:#ccc;stroke:black;stroke-width:28.86050034;stroke-linecap:square;fill-opacity:1"
   id="polyline2000"
   points="91.245,386.387    207.858,258.645 314.887,230.409 388.368,143.007 524.155,273.436 562.493,250.578 690.287,387.729  " /><polygon
   style="fill:#999;fill-opacity:1"
   id="polygon2002"
   points="392.164,170.051 396.442,256.288 536.218,369.245 587.565,359.526 392.164,170.051 " /><polygon
   style="fill:white"
   id="polygon2004"
   points="386.486,178.292 389.338,255.692 332.288,237.48 386.486,178.292 " /><path
   style="fill:#fcc"
   id="path2006"
   d="" /><polygon
   style="fill:white"
   id="polygon2008"
   points="560.378,271.803 568.937,296.842 536.133,301.397 526.149,293.428 560.378,271.803 " /><polygon
   style="fill:#999;fill-opacity:1"
   id="polygon2010"
   points="658.815,374.344 573.242,288.702 578.949,301.221 541.866,304.637 618.879,381.174 658.815,374.344 " /><path
   style="fill:#900"
   id="path2012"
   d="" /><polygon
   style="fill:white"
   id="polygon2014"
   points="217.104,281.606 221.089,389.717 141.401,364.28 217.104,281.606 " /><polygon
   style="fill:#999;fill-opacity:1"
   id="polygon2016"
   points="225.345,286.51 229.624,372.747 254.076,384.061 305.422,374.342 225.345,286.51 " /><polygon
   style="fill:white"
   id="polygon2018"
   points="315.587,250.182 272.79,324.735 229.775,274.061 315.587,250.182 " /><polygon
   style="fill:white"
   id="polygon2020"
   points="320.89,303.51 354.099,256.313 378.246,291.631 320.89,303.51 " /><polygon
   style="fill:#999;fill-opacity:1"
   id="polygon2022"
   points="365.66,260.561 500.859,367.649 431.251,373.004 325.5,307.413 388.417,298.042 365.66,260.561 " /><polygon
   style="fill:#999;fill-opacity:1"
   id="polygon2024"
   points="328.178,253.868 340.226,264.577 309.438,308.75 401.802,368.989 324.162,366.311 282.666,328.831 328.178,253.868 " />
<g
   id="Grass">
		<path
   style="fill:none;stroke:#ffd233;stroke-width:83.95770264;stroke-linecap:square;stroke-opacity:1"
   id="path2028"
   d="M 75.849,406.292 C 75.849,406.292 271.305,342.73 386.575,376.952 C 608.244,442.764 709.601,367.13 709.601,367.13" />
	</g>
<g
   id="Layer_7"
   transform="matrix(0.999816,-1.919476e-2,1.919476e-2,0.999816,-0.374451,5.878711)">
	</g>
<text
   xml:space="preserve"
   id="text15110"><textPath
     xlink:href="#path16001"
     id="textPath16900"><tspan
   id="tspan15112"><tspan
     id="tspan15114"
     style="font-size:48px;font-style:normal;font-variant:normal;font-weight:normal;font-stretch:normal;text-align:start;line-height:125%;writing-mode:lr-tb;text-anchor:start;font-family:Raanana"
     y="70.818222"
     x="73.546089">Boulder Linux Users Group</tspan></tspan></textPath></text>
<path
   style="fill:none;fill-rule:evenodd;stroke:black;stroke-width:0;stroke-linecap:butt;stroke-linejoin:miter;stroke-opacity:1;stroke-miterlimit:4;stroke-dasharray:none;opacity:1"
   d="M 78.585834,437.27842 C 131.98442,413.23417 184.86262,383.53105 279.34808,385.0925 C 399.56863,394.75046 474.88538,426.74568 534.1381,428.68309 C 631.11316,428.05337 702.57405,402.8685 724.46317,388.16228"
   id="path16001"
   sodipodi:nodetypes="cccc" /></svg>